<?xml version="1.0" encoding="UTF-8"?>
<svg width="150" height="150" fill="none" version="1.1" viewBox="0 0 150 150" xmlns="http://www.w3.org/2000/svg">
 <g fill="#000">
  <path d="m135 14h-120c-0.5523 0-1 0.4477-1 1v38c0 0.5523 0.4477 1 1 1h120c0.552 0 1-0.4477 1-1v-38c0-0.5523-0.448-1-1-1zm-120-4c-2.7614 0-5 2.2386-5 5v38c0 2.7614 2.2386 5 5 5h120c2.761 0 5-2.2386 5-5v-38c0-2.7614-2.239-5-5-5h-120zm120 86h-120c-0.5523 0-1 0.4477-1 1v38c0 0.552 0.4477 1 1 1h120c0.552 0 1-0.448 1-1v-38c0-0.5523-0.448-1-1-1zm-120-4c-2.7614 0-5 2.2386-5 5v38c0 2.761 2.2386 5 5 5h120c2.761 0 5-2.239 5-5v-38c0-2.7614-2.239-5-5-5h-120zm0-27h120c0.552 0 1 0.4477 1 1v18c0 0.5523-0.448 1-1 1h-120c-0.5523 0-1-0.4477-1-1v-18c0-0.5523 0.4477-1 1-1zm-5 1c0-2.7614 2.2386-5 5-5h120c2.761 0 5 2.2386 5 5v18c0 2.7614-2.239 5-5 5h-120c-2.7614 0-5-2.2386-5-5v-18z" clip-rule="evenodd" fill-rule="evenodd"/>
  <circle cx="128" cy="105" r="4"/>
  <circle cx="128" cy="22" r="4"/>
  <circle cx="24" cy="105" r="4"/>
  <circle cx="24" cy="22" r="4"/>
 </g>
 <g stroke="#000" stroke-width="2">
  <line x1="32" x2="32" y1="113" y2="120" stroke-linecap="round"/>
  <line x1="32" x2="32" y1="31" y2="38" stroke-linecap="round"/>
  <circle cx="120" cy="117" r="4"/>
  <circle cx="120" cy="35" r="4"/>
 </g>
</svg>
