<?xml version="1.0" encoding="UTF-8"?>
<svg width="150" height="150" version="1.1" viewBox="0 0 150 150" xmlns="http://www.w3.org/2000/svg">
 <path d="m135 14h-120c-0.5523 0-1 0.4477-1 1v38c0 0.5523 0.4477 1 1 1h120c0.552 0 1-0.4477 1-1v-38c0-0.5523-0.448-1-1-1zm-120-4c-2.7614 0-5 2.2386-5 5v38c0 2.7614 2.2386 5 5 5h120c2.761 0 5-2.2386 5-5v-38c0-2.7614-2.239-5-5-5h-120zm120 86h-120c-0.5523 0-1 0.4477-1 1v38c0 0.552 0.4477 1 1 1h120c0.552 0 1-0.448 1-1v-38c0-0.5523-0.448-1-1-1zm-120-4c-2.7614 0-5 2.2386-5 5v38c0 2.761 2.2386 5 5 5h120c2.761 0 5-2.239 5-5v-38c0-2.7614-2.239-5-5-5h-120zm0-27h120c0.552 0 1 0.4477 1 1v18c0 0.5523-0.448 1-1 1h-120c-0.5523 0-1-0.4477-1-1v-18c0-0.5523 0.4477-1 1-1zm-5 1c0-2.7614 2.2386-5 5-5h120c2.761 0 5 2.2386 5 5v18c0 2.7614-2.239 5-5 5h-120c-2.7614 0-5-2.2386-5-5v-18z" clip-rule="evenodd" fill-rule="evenodd"/>
 <g transform="translate(0,-2)" fill="none" stroke="#000">
  <g stroke-linecap="round">
   <path d="m39 43-6.6338-11.499c-0.3848-0.667-1.3476-0.667-1.7324 0l-6.6338 11.499" stroke-width="2"/>
   <path d="m 112,30 6.634,11.499 c 0.385,0.667 1.347,0.667 1.732,0 L 127,30" stroke-width="2"/>
   <line x1="31.5" x2="31.5" y1="38.5" y2="46.5"/>
  </g>
  <circle cx="120" cy="31" r="2.5"/>
 </g>
 <g transform="translate(-21.792 80.085)" fill="none" stroke="#000">
  <g transform="translate(18.792 -81.085)" stroke="#000" stroke-width="2">
   <line x1="32" x2="32" y1="113" y2="120" stroke-linecap="round"/>
   <circle cx="120" cy="117" r="4"/>
  </g>
 </g>
</svg>
