<?xml version="1.0" encoding="UTF-8"?>
<svg width="150" height="150" fill="none" version="1.1" viewBox="0 0 150 150" xmlns="http://www.w3.org/2000/svg">
 <path d="m125.42 14h-100.84c-5.8428 0-10.579 4.7366-10.579 10.579v100.84c0 5.842 4.7366 10.579 10.579 10.579h100.84c5.842 0 10.579-4.737 10.579-10.579v-100.84c0-5.8428-4.737-10.579-10.579-10.579zm-100.84-4c-8.052 0-14.579 6.5274-14.579 14.579v100.84c0 8.052 6.5274 14.579 14.579 14.579h100.84c8.052 0 14.579-6.527 14.579-14.579v-100.84c0-8.052-6.527-14.579-14.579-14.579h-100.84zm-0.3925 17.617c0-1.8943 1.5356-3.4299 3.4299-3.4299h94.766c1.894 0 3.43 1.5356 3.43 3.4299v94.766c0 1.894-1.536 3.43-3.43 3.43h-94.766c-1.8943 0-3.4299-1.536-3.4299-3.43v-94.766zm3.4299-1.4299c-0.7897 0-1.4299 0.6402-1.4299 1.4299v94.766c0 0.79 0.6402 1.43 1.4299 1.43h94.766c0.79 0 1.43-0.64 1.43-1.43v-94.766c0-0.7897-0.64-1.4299-1.43-1.4299h-94.766zm47.383 50.813c1.1046 0 2-0.8954 2-2s-0.8954-2-2-2-2 0.8954-2 2 0.8954 2 2 2z" clip-rule="evenodd" fill="#000" fill-rule="evenodd"/>
</svg>
