<?xml version="1.0" encoding="UTF-8"?>
<svg width="150" height="150" fill="none" version="1.1" viewBox="0 0 150 150" xmlns="http://www.w3.org/2000/svg">
 <g stroke="#000">
  <rect x="39" y="57" width="72" height="81" rx="3" fill="none" stroke-width="4"/>
  <g stroke-width="2">
   <path d="m104 103c0 16.016-12.984 29-29 29s-29-12.984-29-29c0-16.016 12.984-29 29-29s29 12.984 29 29z" fill="none"/>
   <circle cx="59.688" cy="97.778" r="3.5" fill="#000"/>
   <circle cx="90" cy="97.778" r="3.5" fill="#000"/>
  </g>
  <rect x="39" y="15" width="72" height="36" rx="3" fill="none" stroke-width="4"/>
 </g>
 <circle cx="75" cy="33" r="4" fill="#000"/>
 <line x1="50" x2="50" y1="29" y2="36" fill="none" stroke="#000" stroke-linecap="round" stroke-width="2"/>
 <circle cx="100" cy="33" r="4" fill="none" stroke="#000" stroke-width="2"/>
 <path d="m70 121.6c0-0.884 0.7163-1.6 1.6-1.6h6.8c0.8837 0 1.6 0.716 1.6 1.6v0.4c0 2.761-2.2386 5-5 5s-5-2.239-5-5v-0.4z" fill="#000"/>
</svg>
