<?xml version="1.0" encoding="UTF-8"?>
<svg width="150" height="150" fill="none" version="1.1" viewBox="0 0 150 150" xmlns="http://www.w3.org/2000/svg">
 <defs>
  <radialGradient id="radialGradient1966" cx="65.5" cy="109.5" r="13" gradientTransform="matrix(.26458 0 0 .26458 -.22737 1.5349)" gradientUnits="userSpaceOnUse">
   <stop stop-color="#0078CC" offset="0"/>
   <stop stop-color="#0078CC" offset=".6"/>
   <stop stop-color="#0078CC" stop-opacity="0" offset="1"/>
  </radialGradient>
 </defs>
 <g stroke="#000">
  <rect x="39" y="57" width="72" height="81" rx="3" fill="none" stroke-width="4"/>
  <g stroke-width="2">
   <path d="m104 103c0 16.016-12.984 29-29 29s-29-12.984-29-29 12.984-29 29-29 29 12.984 29 29z" fill="none"/>
   <circle cx="59.688" cy="97.778" r="3.5" fill="#000"/>
   <circle cx="90" cy="97.778" r="3.5" fill="#000"/>
  </g>
  <rect x="39" y="15" width="72" height="36" rx="3" fill="none" stroke-width="4"/>
 </g>
 <circle cx="75" cy="33" r="4" fill="#000"/>
 <line x1="50" x2="50" y1="29" y2="36" fill="none" stroke="#000" stroke-linecap="round" stroke-width="2"/>
 <g transform="matrix(3.7795 0 0 3.7795 -14.641 -82.802)">
  <style type="text/css">.press {
    animation: press 5s infinite;
}

@keyframes press {
    0%, 5%, 15%, 25%, 35%, 100% {
        opacity: 0;
    }
    10%, 20%, 30% {
        opacity: 0.75;
    }
}</style>
  <circle class="press" cx="17.103" cy="30.507" r="3.4396" fill="url(#radialGradient1966)" stroke-width=".26458"/>
 </g>
 <circle cx="100" cy="33" r="4" fill="none" stroke="#000" stroke-width="2"/>
 <path d="m70 121.6c0-0.884 0.7163-1.6 1.6-1.6h6.8c0.8837 0 1.6 0.716 1.6 1.6v0.4c0 2.761-2.2386 5-5 5s-5-2.239-5-5v-0.4z" fill="#000"/>
</svg>
