<?xml version="1.0" encoding="UTF-8"?>
<svg width="100" height="100" version="1.1" viewBox="0 0 100 100" xmlns="http://www.w3.org/2000/svg">
 <g transform="matrix(1.3333 0 0 -1.3333 0 219.21)">
  <g transform="scale(.1)">
   <path d="m530.23 1388.1c-9.9669 0-14.209-1.5329-18.242-5.8834-1.6283-1.6474-2.2771-3.4411-2.8432-6.8439l-50.731-183.46c-11.894-64.325-94.746-128.59-202.79-128.59h-150.16l26.046 94.258h96.495c9.8333 0 17.523 3.5078 23.992 10.336 2.3343 2.7006 5.4446 6.8623 5.858 11.131l40.065 160.27c11.805 64.413 83.055 135.5 191.1 135.5h153.71l-19.578-86.725zm34.652-111.77 17.142 59.351h156.25c19.272 86.045 4.1025 165.81-50.674 218.03-110.84 105.71-342.72 69.756-515.49-87.845-26.924-24.488-49.746-50.941-70.506-78.005h94.078l-21.906-59.452h-112.36c-10.73-18.757-20.805-37.353-28.514-56.254h133.25l-21.346-59.476h-130.96c-22.395-90.848-8.0969-175.61 48.2-229.44 109.49-104.38 340.68-67.669 513.33 89.902 30.232 27.405 55.177 56.996 77.738 87.395h-120.86l18.407 59.338h141.27c10.393 18.9 19.908 37.517 27.369 56.454h-154.43"/>
  </g>
 </g>
</svg>
