<?xml version="1.0" encoding="UTF-8"?>
<svg width="150" height="150" version="1.1" viewBox="0 0 150 150" xmlns="http://www.w3.org/2000/svg">
 <defs>
  <radialGradient id="radialGradient1966" cx="65.5" cy="109.5" r="13" gradientTransform="matrix(.26458 0 0 .26458 -.22737 1.5349)" gradientUnits="userSpaceOnUse">
   <stop stop-color="#0078CC" offset="0"/>
   <stop stop-color="#0078CC" offset=".6"/>
   <stop stop-color="#0078CC" stop-opacity="0" offset="1"/>
  </radialGradient>
 </defs>
 <path d="m135 14h-120c-0.5523 0-1 0.4477-1 1v38c0 0.5523 0.4477 1 1 1h120c0.552 0 1-0.4477 1-1v-38c0-0.5523-0.448-1-1-1zm-120-4c-2.7614 0-5 2.2386-5 5v38c0 2.7614 2.2386 5 5 5h120c2.761 0 5-2.2386 5-5v-38c0-2.7614-2.239-5-5-5h-120zm120 86h-120c-0.5523 0-1 0.4477-1 1v38c0 0.552 0.4477 1 1 1h120c0.552 0 1-0.448 1-1v-38c0-0.5523-0.448-1-1-1zm-120-4c-2.7614 0-5 2.2386-5 5v38c0 2.761 2.2386 5 5 5h120c2.761 0 5-2.239 5-5v-38c0-2.7614-2.239-5-5-5h-120zm0-27h120c0.552 0 1 0.4477 1 1v18c0 0.5523-0.448 1-1 1h-120c-0.5523 0-1-0.4477-1-1v-18c0-0.5523 0.4477-1 1-1zm-5 1c0-2.7614 2.2386-5 5-5h120c2.761 0 5 2.2386 5 5v18c0 2.7614-2.239 5-5 5h-120c-2.7614 0-5-2.2386-5-5v-18z" clip-rule="evenodd" fill-rule="evenodd"/>
 <g fill="none" stroke="#000">
  <g stroke-linecap="round">
   <path d="m39 43-6.6338-11.499c-0.3848-0.667-1.3476-0.667-1.7324 0l-6.6338 11.499" stroke-width="2"/>
   <path d="m112 30 6.634 11.499c0.385 0.667 1.347 0.667 1.732 0l6.634-11.499" stroke-width="2"/>
   <line x1="31.5" x2="31.5" y1="38.5" y2="46.5"/>
  </g>
  <circle cx="120" cy="31" r="2.5"/>
 </g>
 <path d="m31.216 127h-1.2304v-7.841c-0.2963 0.283-0.6859 0.565-1.169 0.848-0.4785 0.282-0.9092 0.494-1.292 0.636v-1.19c0.6882-0.323 1.2897-0.715 1.8047-1.176 0.515-0.46 0.8796-0.907 1.0938-1.339h0.7929v10.062z"/>
 <path d="m122.05 127.82v1.183h-6.624c-9e-3 -0.296 0.039-0.581 0.143-0.854 0.169-0.452 0.438-0.896 0.807-1.334 0.374-0.437 0.912-0.943 1.613-1.517 1.09-0.893 1.826-1.6 2.208-2.119 0.383-0.524 0.575-1.019 0.575-1.484 0-0.487-0.176-0.897-0.527-1.23-0.346-0.337-0.8-0.506-1.36-0.506-0.593 0-1.066 0.178-1.422 0.533-0.355 0.356-0.535 0.848-0.54 1.477l-1.265-0.13c0.087-0.943 0.413-1.661 0.978-2.153 0.565-0.497 1.324-0.745 2.276-0.745 0.962 0 1.723 0.266 2.283 0.799 0.561 0.534 0.841 1.194 0.841 1.983 0 0.401-0.082 0.795-0.246 1.182-0.164 0.388-0.437 0.796-0.82 1.224-0.378 0.428-1.01 1.016-1.894 1.764-0.738 0.619-1.212 1.041-1.422 1.264-0.209 0.219-0.382 0.44-0.519 0.663h4.915z"/>
 <circle cx="128" cy="105" r="4"/>
 <circle cx="128" cy="22" r="4"/>
 <circle cx="24" cy="105" r="4"/>
 <circle cx="24" cy="22" r="4"/>
 <g transform="matrix(3.7795 0 0 3.7795 -33.141 -78.286)">
  <style type="text/css">.press {
    animation: press 5s infinite;
}

@keyframes press {
    0%, 5%, 15%, 25%, 35%, 100% {
        opacity: 0;
    }
    10%, 20%, 30% {
        opacity: 0.75;
    }
}</style>
  <circle class="press" cx="17.103" cy="30.507" r="3.4396" fill="url(#radialGradient1966)" stroke-width=".26458"/>
 </g>
</svg>
